<svg width="507" height="244" viewBox="0 0 507 244" fill="none" xmlns="http://www.w3.org/2000/svg">
<mask id="path-1-outside-1_499_768" maskUnits="userSpaceOnUse" x="391" y="189" width="85" height="53" fill="black">
<rect fill="white" x="391" y="189" width="85" height="53"/>
<path d="M392.045 240V193.455H401.886V213.977H402.5L419.25 193.455H431.045L413.773 214.295L431.25 240H419.477L406.727 220.864L401.886 226.773V240H392.045ZM438.176 240V205.091H447.858V240H438.176ZM443.04 200.591C441.6 200.591 440.366 200.114 439.335 199.159C438.32 198.189 437.812 197.03 437.812 195.682C437.812 194.348 438.32 193.205 439.335 192.25C440.366 191.28 441.6 190.795 443.04 190.795C444.479 190.795 445.706 191.28 446.722 192.25C447.752 193.205 448.267 194.348 448.267 195.682C448.267 197.03 447.752 198.189 446.722 199.159C445.706 200.114 444.479 200.591 443.04 200.591ZM474.182 205.091V212.364H453.159V205.091H474.182ZM457.932 196.727H467.614V229.273C467.614 230.167 467.75 230.864 468.023 231.364C468.295 231.848 468.674 232.189 469.159 232.386C469.659 232.583 470.235 232.682 470.886 232.682C471.341 232.682 471.795 232.644 472.25 232.568C472.705 232.477 473.053 232.409 473.295 232.364L474.818 239.568C474.333 239.72 473.652 239.894 472.773 240.091C471.894 240.303 470.826 240.432 469.568 240.477C467.235 240.568 465.189 240.258 463.432 239.545C461.689 238.833 460.333 237.727 459.364 236.227C458.394 234.727 457.917 232.833 457.932 230.545V196.727Z"/>
</mask>
<path d="M392.045 240V193.455H401.886V213.977H402.5L419.25 193.455H431.045L413.773 214.295L431.25 240H419.477L406.727 220.864L401.886 226.773V240H392.045ZM438.176 240V205.091H447.858V240H438.176ZM443.04 200.591C441.6 200.591 440.366 200.114 439.335 199.159C438.32 198.189 437.812 197.03 437.812 195.682C437.812 194.348 438.32 193.205 439.335 192.25C440.366 191.28 441.6 190.795 443.04 190.795C444.479 190.795 445.706 191.28 446.722 192.25C447.752 193.205 448.267 194.348 448.267 195.682C448.267 197.03 447.752 198.189 446.722 199.159C445.706 200.114 444.479 200.591 443.04 200.591ZM474.182 205.091V212.364H453.159V205.091H474.182ZM457.932 196.727H467.614V229.273C467.614 230.167 467.75 230.864 468.023 231.364C468.295 231.848 468.674 232.189 469.159 232.386C469.659 232.583 470.235 232.682 470.886 232.682C471.341 232.682 471.795 232.644 472.25 232.568C472.705 232.477 473.053 232.409 473.295 232.364L474.818 239.568C474.333 239.72 473.652 239.894 472.773 240.091C471.894 240.303 470.826 240.432 469.568 240.477C467.235 240.568 465.189 240.258 463.432 239.545C461.689 238.833 460.333 237.727 459.364 236.227C458.394 234.727 457.917 232.833 457.932 230.545V196.727Z" fill="#085F63"/>
<path d="M392.045 240H391.045V241H392.045V240ZM392.045 193.455V192.455H391.045V193.455H392.045ZM401.886 193.455H402.886V192.455H401.886V193.455ZM401.886 213.977H400.886V214.977H401.886V213.977ZM402.5 213.977V214.977H402.975L403.275 214.61L402.5 213.977ZM419.25 193.455V192.455H418.775L418.475 192.822L419.25 193.455ZM431.045 193.455L431.815 194.093L433.173 192.455H431.045V193.455ZM413.773 214.295L413.003 213.657L412.523 214.236L412.946 214.858L413.773 214.295ZM431.25 240V241H433.139L432.077 239.438L431.25 240ZM419.477 240L418.645 240.554L418.942 241H419.477V240ZM406.727 220.864L407.559 220.309L406.81 219.185L405.954 220.23L406.727 220.864ZM401.886 226.773L401.113 226.139L400.886 226.415V226.773H401.886ZM401.886 240V241H402.886V240H401.886ZM392.045 240H393.045V193.455H392.045H391.045V240H392.045ZM392.045 193.455V194.455H401.886V193.455V192.455H392.045V193.455ZM401.886 193.455H400.886V213.977H401.886H402.886V193.455H401.886ZM401.886 213.977V214.977H402.5V213.977V212.977H401.886V213.977ZM402.5 213.977L403.275 214.61L420.025 194.087L419.25 193.455L418.475 192.822L401.725 213.345L402.5 213.977ZM419.25 193.455V194.455H431.045V193.455V192.455H419.25V193.455ZM431.045 193.455L430.276 192.816L413.003 213.657L413.773 214.295L414.543 214.934L431.815 194.093L431.045 193.455ZM413.773 214.295L412.946 214.858L430.423 240.562L431.25 240L432.077 239.438L414.6 213.733L413.773 214.295ZM431.25 240V239H419.477V240V241H431.25V240ZM419.477 240L420.309 239.446L407.559 220.309L406.727 220.864L405.895 221.418L418.645 240.554L419.477 240ZM406.727 220.864L405.954 220.23L401.113 226.139L401.886 226.773L402.66 227.406L407.501 221.497L406.727 220.864ZM401.886 226.773H400.886V240H401.886H402.886V226.773H401.886ZM401.886 240V239H392.045V240V241H401.886V240ZM438.176 240H437.176V241H438.176V240ZM438.176 205.091V204.091H437.176V205.091H438.176ZM447.858 205.091H448.858V204.091H447.858V205.091ZM447.858 240V241H448.858V240H447.858ZM439.335 199.159L438.644 199.882L438.65 199.887L438.656 199.893L439.335 199.159ZM439.335 192.25L440.02 192.979L440.021 192.978L439.335 192.25ZM446.722 192.25L446.031 192.973L446.036 192.978L446.042 192.984L446.722 192.25ZM446.722 199.159L447.407 199.888L447.407 199.887L446.722 199.159ZM438.176 240H439.176V205.091H438.176H437.176V240H438.176ZM438.176 205.091V206.091H447.858V205.091V204.091H438.176V205.091ZM447.858 205.091H446.858V240H447.858H448.858V205.091H447.858ZM447.858 240V239H438.176V240V241H447.858V240ZM443.04 200.591V199.591C441.845 199.591 440.855 199.204 440.015 198.426L439.335 199.159L438.656 199.893C439.876 201.023 441.355 201.591 443.04 201.591V200.591ZM439.335 199.159L440.026 198.436C439.199 197.646 438.812 196.745 438.812 195.682H437.812H436.812C436.812 197.316 437.441 198.733 438.644 199.882L439.335 199.159ZM437.812 195.682H438.812C438.812 194.638 439.196 193.754 440.02 192.979L439.335 192.25L438.65 191.521C437.444 192.655 436.812 194.059 436.812 195.682H437.812ZM439.335 192.25L440.021 192.978C440.862 192.186 441.85 191.795 443.04 191.795V190.795V189.795C441.351 189.795 439.869 190.374 438.65 191.522L439.335 192.25ZM443.04 190.795V191.795C444.229 191.795 445.207 192.186 446.031 192.973L446.722 192.25L447.412 191.527C446.206 190.375 444.729 189.795 443.04 189.795V190.795ZM446.722 192.25L446.042 192.984C446.88 193.76 447.267 194.643 447.267 195.682H448.267H449.267C449.267 194.054 448.624 192.649 447.401 191.516L446.722 192.25ZM448.267 195.682H447.267C447.267 196.74 446.877 197.64 446.036 198.431L446.722 199.159L447.407 199.887C448.627 198.739 449.267 197.321 449.267 195.682H448.267ZM446.722 199.159L446.037 198.431C445.214 199.204 444.234 199.591 443.04 199.591V200.591V201.591C444.724 201.591 446.199 201.023 447.407 199.888L446.722 199.159ZM474.182 205.091H475.182V204.091H474.182V205.091ZM474.182 212.364V213.364H475.182V212.364H474.182ZM453.159 212.364H452.159V213.364H453.159V212.364ZM453.159 205.091V204.091H452.159V205.091H453.159ZM457.932 196.727V195.727H456.932V196.727H457.932ZM467.614 196.727H468.614V195.727H467.614V196.727ZM468.023 231.364L467.145 231.843L467.151 231.854L468.023 231.364ZM469.159 232.386L468.783 233.313L468.793 233.317L469.159 232.386ZM472.25 232.568L472.414 233.555L472.43 233.552L472.446 233.549L472.25 232.568ZM473.295 232.364L474.274 232.157L474.072 231.201L473.111 231.381L473.295 232.364ZM474.818 239.568L475.116 240.523L475.985 240.251L475.797 239.361L474.818 239.568ZM472.773 240.091L472.554 239.115L472.546 239.117L472.538 239.119L472.773 240.091ZM469.568 240.477L469.532 239.478L469.529 239.478L469.568 240.477ZM463.432 239.545L463.053 240.471L463.056 240.472L463.432 239.545ZM459.364 236.227L460.203 235.684V235.684L459.364 236.227ZM457.932 230.545L458.932 230.552V230.545H457.932ZM474.182 205.091H473.182V212.364H474.182H475.182V205.091H474.182ZM474.182 212.364V211.364H453.159V212.364V213.364H474.182V212.364ZM453.159 212.364H454.159V205.091H453.159H452.159V212.364H453.159ZM453.159 205.091V206.091H474.182V205.091V204.091H453.159V205.091ZM457.932 196.727V197.727H467.614V196.727V195.727H457.932V196.727ZM467.614 196.727H466.614V229.273H467.614H468.614V196.727H467.614ZM467.614 229.273H466.614C466.614 230.248 466.759 231.135 467.145 231.842L468.023 231.364L468.901 230.885C468.741 230.592 468.614 230.086 468.614 229.273H467.614ZM468.023 231.364L467.151 231.854C467.527 232.523 468.074 233.025 468.783 233.313L469.159 232.386L469.535 231.46C469.274 231.354 469.064 231.174 468.894 230.873L468.023 231.364ZM469.159 232.386L468.793 233.317C469.431 233.568 470.135 233.682 470.886 233.682V232.682V231.682C470.334 231.682 469.887 231.598 469.526 231.456L469.159 232.386ZM470.886 232.682V233.682C471.397 233.682 471.906 233.639 472.414 233.555L472.25 232.568L472.086 231.582C471.685 231.649 471.285 231.682 470.886 231.682V232.682ZM472.25 232.568L472.446 233.549C472.899 233.458 473.243 233.391 473.48 233.347L473.295 232.364L473.111 231.381C472.863 231.427 472.51 231.496 472.054 231.588L472.25 232.568ZM473.295 232.364L472.317 232.57L473.84 239.775L474.818 239.568L475.797 239.361L474.274 232.157L473.295 232.364ZM474.818 239.568L474.52 238.614C474.074 238.753 473.423 238.92 472.554 239.115L472.773 240.091L472.991 241.067C473.88 240.868 474.593 240.686 475.116 240.523L474.818 239.568ZM472.773 240.091L472.538 239.119C471.744 239.31 470.747 239.434 469.532 239.478L469.568 240.477L469.604 241.477C470.905 241.43 472.044 241.296 473.007 241.063L472.773 240.091ZM469.568 240.477L469.529 239.478C467.306 239.565 465.407 239.267 463.807 238.619L463.432 239.545L463.056 240.472C464.972 241.248 467.164 241.572 469.607 241.477L469.568 240.477ZM463.432 239.545L463.81 238.62C462.246 237.981 461.056 237.003 460.203 235.684L459.364 236.227L458.524 236.77C459.611 238.452 461.133 239.686 463.053 240.471L463.432 239.545ZM459.364 236.227L460.203 235.684C459.366 234.388 458.918 232.699 458.932 230.552L457.932 230.545L456.932 230.539C456.916 232.967 457.422 235.066 458.524 236.77L459.364 236.227ZM457.932 230.545H458.932V196.727H457.932H456.932V230.545H457.932Z" fill="black" mask="url(#path-1-outside-1_499_768)"/>
<mask id="path-3-outside-2_499_768" maskUnits="userSpaceOnUse" x="81" y="84" width="393" height="97" fill="black">
<rect fill="white" x="81" y="84" width="393" height="97"/>
<path d="M102.784 159L82.8068 89.1818H98.9318L110.489 137.693H111.068L123.818 89.1818H137.625L150.341 137.795H150.955L162.511 89.1818H178.636L158.659 159H144.273L130.977 113.352H130.432L117.17 159H102.784ZM186.264 159V106.636H200.787V159H186.264ZM193.56 99.8864C191.401 99.8864 189.548 99.1705 188.003 97.7386C186.48 96.2841 185.719 94.5455 185.719 92.5227C185.719 90.5227 186.48 88.8068 188.003 87.375C189.548 85.9205 191.401 85.1932 193.56 85.1932C195.719 85.1932 197.56 85.9205 199.082 87.375C200.628 88.8068 201.401 90.5227 201.401 92.5227C201.401 94.5455 200.628 96.2841 199.082 97.7386C197.56 99.1705 195.719 99.8864 193.56 99.8864ZM231.716 159.852C227.739 159.852 224.136 158.83 220.909 156.784C217.705 154.716 215.159 151.682 213.273 147.682C211.409 143.659 210.477 138.727 210.477 132.886C210.477 126.886 211.443 121.898 213.375 117.92C215.307 113.92 217.875 110.932 221.08 108.955C224.307 106.955 227.841 105.955 231.682 105.955C234.614 105.955 237.057 106.455 239.011 107.455C240.989 108.432 242.58 109.659 243.784 111.136C245.011 112.591 245.943 114.023 246.58 115.432H247.023V89.1818H261.511V159H247.193V150.614H246.58C245.898 152.068 244.932 153.511 243.682 154.943C242.455 156.352 240.852 157.523 238.875 158.455C236.92 159.386 234.534 159.852 231.716 159.852ZM236.318 148.295C238.659 148.295 240.636 147.659 242.25 146.386C243.886 145.091 245.136 143.284 246 140.966C246.886 138.648 247.33 135.932 247.33 132.818C247.33 129.705 246.898 127 246.034 124.705C245.17 122.409 243.92 120.636 242.284 119.386C240.648 118.136 238.659 117.511 236.318 117.511C233.932 117.511 231.92 118.159 230.284 119.455C228.648 120.75 227.409 122.545 226.568 124.841C225.727 127.136 225.307 129.795 225.307 132.818C225.307 135.864 225.727 138.557 226.568 140.898C227.432 143.216 228.67 145.034 230.284 146.352C231.92 147.648 233.932 148.295 236.318 148.295ZM297.043 179.727C292.338 179.727 288.304 179.08 284.94 177.784C281.599 176.511 278.94 174.773 276.963 172.568C274.986 170.364 273.702 167.886 273.111 165.136L286.543 163.33C286.952 164.375 287.599 165.352 288.486 166.261C289.372 167.17 290.543 167.898 291.997 168.443C293.474 169.011 295.27 169.295 297.384 169.295C300.543 169.295 303.145 168.523 305.19 166.977C307.259 165.455 308.293 162.898 308.293 159.307V149.727H307.679C307.043 151.182 306.088 152.557 304.815 153.852C303.543 155.148 301.906 156.205 299.906 157.023C297.906 157.841 295.52 158.25 292.747 158.25C288.815 158.25 285.236 157.341 282.009 155.523C278.804 153.682 276.247 150.875 274.338 147.102C272.452 143.307 271.509 138.511 271.509 132.716C271.509 126.784 272.474 121.83 274.406 117.852C276.338 113.875 278.906 110.898 282.111 108.92C285.338 106.943 288.872 105.955 292.713 105.955C295.645 105.955 298.099 106.455 300.077 107.455C302.054 108.432 303.645 109.659 304.849 111.136C306.077 112.591 307.02 114.023 307.679 115.432H308.224V106.636H322.645V159.511C322.645 163.966 321.554 167.693 319.372 170.693C317.19 173.693 314.168 175.943 310.304 177.443C306.463 178.966 302.043 179.727 297.043 179.727ZM297.349 147.341C299.69 147.341 301.668 146.761 303.281 145.602C304.918 144.42 306.168 142.739 307.031 140.557C307.918 138.352 308.361 135.716 308.361 132.648C308.361 129.58 307.929 126.92 307.065 124.67C306.202 122.398 304.952 120.636 303.315 119.386C301.679 118.136 299.69 117.511 297.349 117.511C294.963 117.511 292.952 118.159 291.315 119.455C289.679 120.727 288.44 122.5 287.599 124.773C286.759 127.045 286.338 129.67 286.338 132.648C286.338 135.67 286.759 138.284 287.599 140.489C288.463 142.67 289.702 144.364 291.315 145.568C292.952 146.75 294.963 147.341 297.349 147.341ZM358.065 160.023C352.679 160.023 348.043 158.932 344.156 156.75C340.293 154.545 337.315 151.432 335.224 147.409C333.134 143.364 332.088 138.58 332.088 133.057C332.088 127.67 333.134 122.943 335.224 118.875C337.315 114.807 340.259 111.636 344.054 109.364C347.872 107.091 352.349 105.955 357.486 105.955C360.94 105.955 364.156 106.511 367.134 107.625C370.134 108.716 372.747 110.364 374.974 112.568C377.224 114.773 378.974 117.545 380.224 120.886C381.474 124.205 382.099 128.091 382.099 132.545V136.534H337.884V127.534H368.429C368.429 125.443 367.974 123.591 367.065 121.977C366.156 120.364 364.895 119.102 363.281 118.193C361.69 117.261 359.838 116.795 357.724 116.795C355.52 116.795 353.565 117.307 351.861 118.33C350.179 119.33 348.861 120.682 347.906 122.386C346.952 124.068 346.463 125.943 346.44 128.011V136.568C346.44 139.159 346.918 141.398 347.872 143.284C348.849 145.17 350.224 146.625 351.997 147.648C353.77 148.67 355.872 149.182 358.304 149.182C359.918 149.182 361.395 148.955 362.736 148.5C364.077 148.045 365.224 147.364 366.179 146.455C367.134 145.545 367.861 144.432 368.361 143.114L381.793 144C381.111 147.227 379.713 150.045 377.599 152.455C375.509 154.841 372.804 156.705 369.486 158.045C366.19 159.364 362.384 160.023 358.065 160.023ZM419.429 106.636V117.545H387.895V106.636H419.429ZM395.054 94.0909H409.577V142.909C409.577 144.25 409.781 145.295 410.19 146.045C410.599 146.773 411.168 147.284 411.895 147.58C412.645 147.875 413.509 148.023 414.486 148.023C415.168 148.023 415.849 147.966 416.531 147.852C417.213 147.716 417.736 147.614 418.099 147.545L420.384 158.352C419.656 158.58 418.634 158.841 417.315 159.136C415.997 159.455 414.395 159.648 412.509 159.716C409.009 159.852 405.94 159.386 403.304 158.318C400.69 157.25 398.656 155.591 397.202 153.341C395.747 151.091 395.031 148.25 395.054 144.818V94.0909ZM471.801 121.568L458.506 122.386C458.278 121.25 457.79 120.227 457.04 119.318C456.29 118.386 455.301 117.648 454.074 117.102C452.869 116.534 451.426 116.25 449.744 116.25C447.494 116.25 445.597 116.727 444.051 117.682C442.506 118.614 441.733 119.864 441.733 121.432C441.733 122.682 442.233 123.739 443.233 124.602C444.233 125.466 445.949 126.159 448.381 126.682L457.858 128.591C462.949 129.636 466.744 131.318 469.244 133.636C471.744 135.955 472.994 139 472.994 142.773C472.994 146.205 471.983 149.216 469.96 151.807C467.96 154.398 465.21 156.42 461.71 157.875C458.233 159.307 454.222 160.023 449.676 160.023C442.744 160.023 437.222 158.58 433.108 155.693C429.017 152.784 426.619 148.83 425.915 143.83L440.199 143.08C440.631 145.193 441.676 146.807 443.335 147.92C444.994 149.011 447.119 149.557 449.71 149.557C452.256 149.557 454.301 149.068 455.847 148.091C457.415 147.091 458.21 145.807 458.233 144.239C458.21 142.92 457.653 141.841 456.562 141C455.472 140.136 453.79 139.477 451.517 139.023L442.449 137.216C437.335 136.193 433.528 134.42 431.028 131.898C428.551 129.375 427.312 126.159 427.312 122.25C427.312 118.886 428.222 115.989 430.04 113.557C431.881 111.125 434.46 109.25 437.778 107.932C441.119 106.614 445.028 105.955 449.506 105.955C456.119 105.955 461.324 107.352 465.119 110.148C468.938 112.943 471.165 116.75 471.801 121.568Z"/>
</mask>
<path d="M102.784 159L82.8068 89.1818H98.9318L110.489 137.693H111.068L123.818 89.1818H137.625L150.341 137.795H150.955L162.511 89.1818H178.636L158.659 159H144.273L130.977 113.352H130.432L117.17 159H102.784ZM186.264 159V106.636H200.787V159H186.264ZM193.56 99.8864C191.401 99.8864 189.548 99.1705 188.003 97.7386C186.48 96.2841 185.719 94.5455 185.719 92.5227C185.719 90.5227 186.48 88.8068 188.003 87.375C189.548 85.9205 191.401 85.1932 193.56 85.1932C195.719 85.1932 197.56 85.9205 199.082 87.375C200.628 88.8068 201.401 90.5227 201.401 92.5227C201.401 94.5455 200.628 96.2841 199.082 97.7386C197.56 99.1705 195.719 99.8864 193.56 99.8864ZM231.716 159.852C227.739 159.852 224.136 158.83 220.909 156.784C217.705 154.716 215.159 151.682 213.273 147.682C211.409 143.659 210.477 138.727 210.477 132.886C210.477 126.886 211.443 121.898 213.375 117.92C215.307 113.92 217.875 110.932 221.08 108.955C224.307 106.955 227.841 105.955 231.682 105.955C234.614 105.955 237.057 106.455 239.011 107.455C240.989 108.432 242.58 109.659 243.784 111.136C245.011 112.591 245.943 114.023 246.58 115.432H247.023V89.1818H261.511V159H247.193V150.614H246.58C245.898 152.068 244.932 153.511 243.682 154.943C242.455 156.352 240.852 157.523 238.875 158.455C236.92 159.386 234.534 159.852 231.716 159.852ZM236.318 148.295C238.659 148.295 240.636 147.659 242.25 146.386C243.886 145.091 245.136 143.284 246 140.966C246.886 138.648 247.33 135.932 247.33 132.818C247.33 129.705 246.898 127 246.034 124.705C245.17 122.409 243.92 120.636 242.284 119.386C240.648 118.136 238.659 117.511 236.318 117.511C233.932 117.511 231.92 118.159 230.284 119.455C228.648 120.75 227.409 122.545 226.568 124.841C225.727 127.136 225.307 129.795 225.307 132.818C225.307 135.864 225.727 138.557 226.568 140.898C227.432 143.216 228.67 145.034 230.284 146.352C231.92 147.648 233.932 148.295 236.318 148.295ZM297.043 179.727C292.338 179.727 288.304 179.08 284.94 177.784C281.599 176.511 278.94 174.773 276.963 172.568C274.986 170.364 273.702 167.886 273.111 165.136L286.543 163.33C286.952 164.375 287.599 165.352 288.486 166.261C289.372 167.17 290.543 167.898 291.997 168.443C293.474 169.011 295.27 169.295 297.384 169.295C300.543 169.295 303.145 168.523 305.19 166.977C307.259 165.455 308.293 162.898 308.293 159.307V149.727H307.679C307.043 151.182 306.088 152.557 304.815 153.852C303.543 155.148 301.906 156.205 299.906 157.023C297.906 157.841 295.52 158.25 292.747 158.25C288.815 158.25 285.236 157.341 282.009 155.523C278.804 153.682 276.247 150.875 274.338 147.102C272.452 143.307 271.509 138.511 271.509 132.716C271.509 126.784 272.474 121.83 274.406 117.852C276.338 113.875 278.906 110.898 282.111 108.92C285.338 106.943 288.872 105.955 292.713 105.955C295.645 105.955 298.099 106.455 300.077 107.455C302.054 108.432 303.645 109.659 304.849 111.136C306.077 112.591 307.02 114.023 307.679 115.432H308.224V106.636H322.645V159.511C322.645 163.966 321.554 167.693 319.372 170.693C317.19 173.693 314.168 175.943 310.304 177.443C306.463 178.966 302.043 179.727 297.043 179.727ZM297.349 147.341C299.69 147.341 301.668 146.761 303.281 145.602C304.918 144.42 306.168 142.739 307.031 140.557C307.918 138.352 308.361 135.716 308.361 132.648C308.361 129.58 307.929 126.92 307.065 124.67C306.202 122.398 304.952 120.636 303.315 119.386C301.679 118.136 299.69 117.511 297.349 117.511C294.963 117.511 292.952 118.159 291.315 119.455C289.679 120.727 288.44 122.5 287.599 124.773C286.759 127.045 286.338 129.67 286.338 132.648C286.338 135.67 286.759 138.284 287.599 140.489C288.463 142.67 289.702 144.364 291.315 145.568C292.952 146.75 294.963 147.341 297.349 147.341ZM358.065 160.023C352.679 160.023 348.043 158.932 344.156 156.75C340.293 154.545 337.315 151.432 335.224 147.409C333.134 143.364 332.088 138.58 332.088 133.057C332.088 127.67 333.134 122.943 335.224 118.875C337.315 114.807 340.259 111.636 344.054 109.364C347.872 107.091 352.349 105.955 357.486 105.955C360.94 105.955 364.156 106.511 367.134 107.625C370.134 108.716 372.747 110.364 374.974 112.568C377.224 114.773 378.974 117.545 380.224 120.886C381.474 124.205 382.099 128.091 382.099 132.545V136.534H337.884V127.534H368.429C368.429 125.443 367.974 123.591 367.065 121.977C366.156 120.364 364.895 119.102 363.281 118.193C361.69 117.261 359.838 116.795 357.724 116.795C355.52 116.795 353.565 117.307 351.861 118.33C350.179 119.33 348.861 120.682 347.906 122.386C346.952 124.068 346.463 125.943 346.44 128.011V136.568C346.44 139.159 346.918 141.398 347.872 143.284C348.849 145.17 350.224 146.625 351.997 147.648C353.77 148.67 355.872 149.182 358.304 149.182C359.918 149.182 361.395 148.955 362.736 148.5C364.077 148.045 365.224 147.364 366.179 146.455C367.134 145.545 367.861 144.432 368.361 143.114L381.793 144C381.111 147.227 379.713 150.045 377.599 152.455C375.509 154.841 372.804 156.705 369.486 158.045C366.19 159.364 362.384 160.023 358.065 160.023ZM419.429 106.636V117.545H387.895V106.636H419.429ZM395.054 94.0909H409.577V142.909C409.577 144.25 409.781 145.295 410.19 146.045C410.599 146.773 411.168 147.284 411.895 147.58C412.645 147.875 413.509 148.023 414.486 148.023C415.168 148.023 415.849 147.966 416.531 147.852C417.213 147.716 417.736 147.614 418.099 147.545L420.384 158.352C419.656 158.58 418.634 158.841 417.315 159.136C415.997 159.455 414.395 159.648 412.509 159.716C409.009 159.852 405.94 159.386 403.304 158.318C400.69 157.25 398.656 155.591 397.202 153.341C395.747 151.091 395.031 148.25 395.054 144.818V94.0909ZM471.801 121.568L458.506 122.386C458.278 121.25 457.79 120.227 457.04 119.318C456.29 118.386 455.301 117.648 454.074 117.102C452.869 116.534 451.426 116.25 449.744 116.25C447.494 116.25 445.597 116.727 444.051 117.682C442.506 118.614 441.733 119.864 441.733 121.432C441.733 122.682 442.233 123.739 443.233 124.602C444.233 125.466 445.949 126.159 448.381 126.682L457.858 128.591C462.949 129.636 466.744 131.318 469.244 133.636C471.744 135.955 472.994 139 472.994 142.773C472.994 146.205 471.983 149.216 469.96 151.807C467.96 154.398 465.21 156.42 461.71 157.875C458.233 159.307 454.222 160.023 449.676 160.023C442.744 160.023 437.222 158.58 433.108 155.693C429.017 152.784 426.619 148.83 425.915 143.83L440.199 143.08C440.631 145.193 441.676 146.807 443.335 147.92C444.994 149.011 447.119 149.557 449.71 149.557C452.256 149.557 454.301 149.068 455.847 148.091C457.415 147.091 458.21 145.807 458.233 144.239C458.21 142.92 457.653 141.841 456.562 141C455.472 140.136 453.79 139.477 451.517 139.023L442.449 137.216C437.335 136.193 433.528 134.42 431.028 131.898C428.551 129.375 427.312 126.159 427.312 122.25C427.312 118.886 428.222 115.989 430.04 113.557C431.881 111.125 434.46 109.25 437.778 107.932C441.119 106.614 445.028 105.955 449.506 105.955C456.119 105.955 461.324 107.352 465.119 110.148C468.938 112.943 471.165 116.75 471.801 121.568Z" fill="#085F63"/>
<path d="M102.784 159L101.823 159.275L102.03 160H102.784V159ZM82.8068 89.1818V88.1818H81.4806L81.8454 89.4569L82.8068 89.1818ZM98.9318 89.1818L99.9046 88.9501L99.7216 88.1818H98.9318V89.1818ZM110.489 137.693L109.516 137.925L109.699 138.693H110.489V137.693ZM111.068 137.693V138.693H111.839L112.035 137.947L111.068 137.693ZM123.818 89.1818V88.1818H123.047L122.851 88.9276L123.818 89.1818ZM137.625 89.1818L138.592 88.9288L138.397 88.1818H137.625V89.1818ZM150.341 137.795L149.373 138.049L149.569 138.795H150.341V137.795ZM150.955 137.795V138.795H151.745L151.927 138.027L150.955 137.795ZM162.511 89.1818V88.1818H161.721L161.538 88.9505L162.511 89.1818ZM178.636 89.1818L179.598 89.4569L179.963 88.1818H178.636V89.1818ZM158.659 159V160H159.413L159.621 159.275L158.659 159ZM144.273 159L143.313 159.28L143.522 160H144.273V159ZM130.977 113.352L131.937 113.073L131.728 112.352H130.977V113.352ZM130.432 113.352V112.352H129.681L129.472 113.073L130.432 113.352ZM117.17 159V160H117.921L118.131 159.279L117.17 159ZM102.784 159L103.746 158.725L83.7682 88.9067L82.8068 89.1818L81.8454 89.4569L101.823 159.275L102.784 159ZM82.8068 89.1818V90.1818H98.9318V89.1818V88.1818H82.8068V89.1818ZM98.9318 89.1818L97.959 89.4136L109.516 137.925L110.489 137.693L111.461 137.461L99.9046 88.9501L98.9318 89.1818ZM110.489 137.693V138.693H111.068V137.693V136.693H110.489V137.693ZM111.068 137.693L112.035 137.947L124.785 89.436L123.818 89.1818L122.851 88.9276L110.101 137.439L111.068 137.693ZM123.818 89.1818V90.1818H137.625V89.1818V88.1818H123.818V89.1818ZM137.625 89.1818L136.658 89.4349L149.373 138.049L150.341 137.795L151.308 137.542L138.592 88.9288L137.625 89.1818ZM150.341 137.795V138.795H150.955V137.795V136.795H150.341V137.795ZM150.955 137.795L151.927 138.027L163.484 89.4131L162.511 89.1818L161.538 88.9505L149.982 137.564L150.955 137.795ZM162.511 89.1818V90.1818H178.636V89.1818V88.1818H162.511V89.1818ZM178.636 89.1818L177.675 88.9067L157.698 158.725L158.659 159L159.621 159.275L179.598 89.4569L178.636 89.1818ZM158.659 159V158H144.273V159V160H158.659V159ZM144.273 159L145.233 158.72L131.937 113.073L130.977 113.352L130.017 113.632L143.313 159.28L144.273 159ZM130.977 113.352V112.352H130.432V113.352V114.352H130.977V113.352ZM130.432 113.352L129.472 113.073L116.21 158.721L117.17 159L118.131 159.279L131.392 113.631L130.432 113.352ZM117.17 159V158H102.784V159V160H117.17V159ZM186.264 159H185.264V160H186.264V159ZM186.264 106.636V105.636H185.264V106.636H186.264ZM200.787 106.636H201.787V105.636H200.787V106.636ZM200.787 159V160H201.787V159H200.787ZM188.003 97.7386L187.312 98.4617L187.318 98.467L187.323 98.4722L188.003 97.7386ZM188.003 87.375L188.688 88.1035L188.688 88.1032L188.003 87.375ZM199.082 87.375L198.392 88.0981L198.397 88.1034L198.403 88.1086L199.082 87.375ZM199.082 97.7386L199.767 98.4672L199.768 98.4668L199.082 97.7386ZM186.264 159H187.264V106.636H186.264H185.264V159H186.264ZM186.264 106.636V107.636H200.787V106.636V105.636H186.264V106.636ZM200.787 106.636H199.787V159H200.787H201.787V106.636H200.787ZM200.787 159V158H186.264V159V160H200.787V159ZM193.56 99.8864V98.8864C191.646 98.8864 190.038 98.261 188.682 97.0051L188.003 97.7386L187.323 98.4722C189.059 100.08 191.155 100.886 193.56 100.886V99.8864ZM188.003 97.7386L188.694 97.0155C187.359 95.741 186.719 94.2599 186.719 92.5227H185.719H184.719C184.719 94.831 185.601 96.8272 187.312 98.4617L188.003 97.7386ZM185.719 92.5227H186.719C186.719 90.8123 187.356 89.3559 188.688 88.1035L188.003 87.375L187.318 86.6465C185.604 88.2577 184.719 90.2331 184.719 92.5227H185.719ZM188.003 87.375L188.688 88.1032C190.045 86.8266 191.65 86.1932 193.56 86.1932V85.1932V84.1932C191.151 84.1932 189.052 85.0143 187.317 86.6468L188.003 87.375ZM193.56 85.1932V86.1932C195.469 86.1932 197.06 86.8262 198.392 88.0981L199.082 87.375L199.773 86.6519C198.059 85.0147 195.969 84.1932 193.56 84.1932V85.1932ZM199.082 87.375L198.403 88.1086C199.756 89.3625 200.401 90.8175 200.401 92.5227H201.401H202.401C202.401 90.228 201.499 88.2511 199.762 86.6414L199.082 87.375ZM201.401 92.5227H200.401C200.401 94.2548 199.753 95.7344 198.397 97.0104L199.082 97.7386L199.768 98.4668C201.503 96.8338 202.401 94.8361 202.401 92.5227H201.401ZM199.082 97.7386L198.397 97.0101C197.067 98.2613 195.473 98.8864 193.56 98.8864V99.8864V100.886C195.964 100.886 198.053 100.08 199.767 98.4672L199.082 97.7386ZM220.909 156.784L220.367 157.624L220.374 157.629L220.909 156.784ZM213.273 147.682L212.365 148.102L212.368 148.108L213.273 147.682ZM213.375 117.92L214.275 118.357L214.275 118.355L213.375 117.92ZM221.08 108.955L221.605 109.806L221.606 109.805L221.08 108.955ZM239.011 107.455L238.556 108.345L238.568 108.351L239.011 107.455ZM243.784 111.136L243.009 111.768L243.014 111.775L243.02 111.781L243.784 111.136ZM246.58 115.432L245.668 115.843L245.934 116.432H246.58V115.432ZM247.023 115.432V116.432H248.023V115.432H247.023ZM247.023 89.1818V88.1818H246.023V89.1818H247.023ZM261.511 89.1818H262.511V88.1818H261.511V89.1818ZM261.511 159V160H262.511V159H261.511ZM247.193 159H246.193V160H247.193V159ZM247.193 150.614H248.193V149.614H247.193V150.614ZM246.58 150.614V149.614H245.944L245.674 150.189L246.58 150.614ZM243.682 154.943L242.928 154.286L242.928 154.286L243.682 154.943ZM238.875 158.455L238.449 157.55L238.445 157.552L238.875 158.455ZM242.25 146.386L242.869 147.172L242.871 147.17L242.25 146.386ZM246 140.966L245.066 140.609L245.063 140.617L246 140.966ZM246.034 124.705L246.97 124.352V124.352L246.034 124.705ZM230.284 119.455L229.663 118.67V118.67L230.284 119.455ZM226.568 140.898L225.627 141.236L225.631 141.247L226.568 140.898ZM230.284 146.352L229.651 147.127L229.657 147.132L229.663 147.136L230.284 146.352ZM231.716 159.852V158.852C227.92 158.852 224.505 157.879 221.444 155.939L220.909 156.784L220.374 157.629C223.768 159.78 227.557 160.852 231.716 160.852V159.852ZM220.909 156.784L221.451 155.944C218.428 153.992 215.997 151.114 214.177 147.255L213.273 147.682L212.368 148.108C214.321 152.25 216.982 155.439 220.367 157.624L220.909 156.784ZM213.273 147.682L214.18 147.261C212.394 143.405 211.477 138.626 211.477 132.886H210.477H209.477C209.477 138.828 210.425 143.913 212.365 148.102L213.273 147.682ZM210.477 132.886H211.477C211.477 126.986 212.428 122.159 214.275 118.357L213.375 117.92L212.475 117.484C210.458 121.637 209.477 126.786 209.477 132.886H210.477ZM213.375 117.92L214.275 118.355C216.14 114.496 218.59 111.666 221.605 109.806L221.08 108.955L220.554 108.104C217.16 110.198 214.474 113.345 212.475 117.486L213.375 117.92ZM221.08 108.955L221.606 109.805C224.673 107.904 228.025 106.955 231.682 106.955V105.955V104.955C227.657 104.955 223.94 106.005 220.553 108.105L221.08 108.955ZM231.682 105.955V106.955C234.506 106.955 236.782 107.437 238.556 108.345L239.011 107.455L239.467 106.564C237.332 105.472 234.721 104.955 231.682 104.955V105.955ZM239.011 107.455L238.568 108.351C240.437 109.275 241.908 110.418 243.009 111.768L243.784 111.136L244.559 110.504C243.251 108.9 241.54 107.589 239.454 106.558L239.011 107.455ZM243.784 111.136L243.02 111.781C244.201 113.181 245.077 114.535 245.668 115.843L246.58 115.432L247.491 115.02C246.809 113.51 245.822 112.001 244.548 110.491L243.784 111.136ZM246.58 115.432V116.432H247.023V115.432V114.432H246.58V115.432ZM247.023 115.432H248.023V89.1818H247.023H246.023V115.432H247.023ZM247.023 89.1818V90.1818H261.511V89.1818V88.1818H247.023V89.1818ZM261.511 89.1818H260.511V159H261.511H262.511V89.1818H261.511ZM261.511 159V158H247.193V159V160H261.511V159ZM247.193 159H248.193V150.614H247.193H246.193V159H247.193ZM247.193 150.614V149.614H246.58V150.614V151.614H247.193V150.614ZM246.58 150.614L245.674 150.189C245.038 151.546 244.128 152.912 242.928 154.286L243.682 154.943L244.435 155.601C245.736 154.111 246.757 152.591 247.485 151.038L246.58 150.614ZM243.682 154.943L242.928 154.286C241.806 155.575 240.322 156.667 238.449 157.55L238.875 158.455L239.301 159.359C241.383 158.378 243.104 157.13 244.436 155.6L243.682 154.943ZM238.875 158.455L238.445 157.552C236.659 158.403 234.428 158.852 231.716 158.852V159.852V160.852C234.64 160.852 237.182 160.369 239.305 159.357L238.875 158.455ZM236.318 148.295V149.295C238.851 149.295 241.055 148.602 242.869 147.172L242.25 146.386L241.631 145.601C240.218 146.716 238.467 147.295 236.318 147.295V148.295ZM242.25 146.386L242.871 147.17C244.675 145.742 246.022 143.772 246.937 141.315L246 140.966L245.063 140.617C244.251 142.796 243.098 144.44 241.629 145.602L242.25 146.386ZM246 140.966L246.934 141.323C247.874 138.866 248.33 136.024 248.33 132.818H247.33H246.33C246.33 135.84 245.899 138.43 245.066 140.609L246 140.966ZM247.33 132.818H248.33C248.33 129.615 247.886 126.786 246.97 124.352L246.034 124.705L245.098 125.057C245.91 127.214 246.33 129.794 246.33 132.818H247.33ZM246.034 124.705L246.97 124.352C246.053 121.915 244.703 119.976 242.891 118.592L242.284 119.386L241.677 120.181C243.138 121.297 244.288 122.903 245.098 125.057L246.034 124.705ZM242.284 119.386L242.891 118.592C241.057 117.191 238.847 116.511 236.318 116.511V117.511V118.511C238.471 118.511 240.238 119.082 241.677 120.181L242.284 119.386ZM236.318 117.511V116.511C233.74 116.511 231.501 117.215 229.663 118.67L230.284 119.455L230.905 120.239C232.34 119.103 234.123 118.511 236.318 118.511V117.511ZM230.284 119.455L229.663 118.67C227.859 120.099 226.523 122.058 225.629 124.497L226.568 124.841L227.507 125.185C228.296 123.033 229.436 121.401 230.905 120.239L230.284 119.455ZM226.568 124.841L225.629 124.497C224.74 126.925 224.307 129.705 224.307 132.818H225.307H226.307C226.307 129.886 226.715 127.348 227.507 125.185L226.568 124.841ZM225.307 132.818H224.307C224.307 135.954 224.74 138.765 225.627 141.236L226.568 140.898L227.509 140.56C226.715 138.348 226.307 135.773 226.307 132.818H225.307ZM226.568 140.898L225.631 141.247C226.545 143.7 227.877 145.677 229.651 147.127L230.284 146.352L230.917 145.578C229.464 144.391 228.319 142.732 227.505 140.549L226.568 140.898ZM230.284 146.352L229.663 147.136C231.501 148.591 233.74 149.295 236.318 149.295V148.295V147.295C234.123 147.295 232.34 146.704 230.905 145.568L230.284 146.352ZM284.94 177.784L285.3 176.851L285.296 176.85L284.94 177.784ZM276.963 172.568L276.219 173.236V173.236L276.963 172.568ZM273.111 165.136L272.977 164.145L271.906 164.289L272.133 165.346L273.111 165.136ZM286.543 163.33L287.474 162.965L287.188 162.234L286.409 162.338L286.543 163.33ZM288.486 166.261L289.202 165.563V165.563L288.486 166.261ZM291.997 168.443L292.356 167.51L292.348 167.507L291.997 168.443ZM305.19 166.977L304.597 166.172L304.588 166.179L305.19 166.977ZM308.293 149.727H309.293V148.727H308.293V149.727ZM307.679 149.727V148.727H307.025L306.763 149.326L307.679 149.727ZM304.815 153.852L305.529 154.553V154.553L304.815 153.852ZM282.009 155.523L281.51 156.39L281.518 156.394L282.009 155.523ZM274.338 147.102L273.443 147.547L273.446 147.554L274.338 147.102ZM274.406 117.852L273.507 117.415V117.415L274.406 117.852ZM282.111 108.92L281.588 108.068L281.586 108.069L282.111 108.92ZM300.077 107.455L299.625 108.347L299.634 108.351L300.077 107.455ZM304.849 111.136L304.074 111.768L304.08 111.775L304.085 111.781L304.849 111.136ZM307.679 115.432L306.773 115.856L307.043 116.432H307.679V115.432ZM308.224 115.432V116.432H309.224V115.432H308.224ZM308.224 106.636V105.636H307.224V106.636H308.224ZM322.645 106.636H323.645V105.636H322.645V106.636ZM319.372 170.693L318.563 170.105V170.105L319.372 170.693ZM310.304 177.443L309.942 176.511L309.935 176.514L310.304 177.443ZM303.281 145.602L303.865 146.414L303.867 146.413L303.281 145.602ZM307.031 140.557L306.103 140.184L306.101 140.189L307.031 140.557ZM307.065 124.67L306.131 125.026L306.132 125.029L307.065 124.67ZM291.315 119.455L291.929 120.244L291.936 120.239L291.315 119.455ZM287.599 124.773L288.537 125.12V125.12L287.599 124.773ZM287.599 140.489L286.665 140.845L286.67 140.857L287.599 140.489ZM291.315 145.568L290.717 146.37L290.723 146.374L290.73 146.379L291.315 145.568ZM297.043 179.727V178.727C292.425 178.727 288.52 178.091 285.3 176.851L284.94 177.784L284.581 178.717C288.088 180.068 292.251 180.727 297.043 180.727V179.727ZM284.94 177.784L285.296 176.85C282.074 175.622 279.559 173.964 277.708 171.9L276.963 172.568L276.219 173.236C278.322 175.581 281.125 177.401 284.584 178.719L284.94 177.784ZM276.963 172.568L277.708 171.9C275.84 169.818 274.641 167.497 274.088 164.926L273.111 165.136L272.133 165.346C272.763 168.276 274.131 170.909 276.219 173.236L276.963 172.568ZM273.111 165.136L273.244 166.127L286.676 164.321L286.543 163.33L286.409 162.338L272.977 164.145L273.111 165.136ZM286.543 163.33L285.611 163.694C286.075 164.879 286.802 165.967 287.77 166.959L288.486 166.261L289.202 165.563C288.397 164.737 287.828 163.871 287.474 162.965L286.543 163.33ZM288.486 166.261L287.77 166.959C288.779 167.995 290.084 168.794 291.646 169.38L291.997 168.443L292.348 167.507C291.001 167.002 289.965 166.346 289.202 165.563L288.486 166.261ZM291.997 168.443L291.638 169.377C293.261 170.001 295.186 170.295 297.384 170.295V169.295V168.295C295.354 168.295 293.688 168.022 292.356 167.51L291.997 168.443ZM297.384 169.295V170.295C300.709 170.295 303.537 169.48 305.793 167.775L305.19 166.977L304.588 166.179C302.753 167.566 300.377 168.295 297.384 168.295V169.295ZM305.19 166.977L305.783 167.783C308.2 166.003 309.293 163.08 309.293 159.307H308.293H307.293C307.293 162.715 306.317 164.906 304.597 166.172L305.19 166.977ZM308.293 159.307H309.293V149.727H308.293H307.293V159.307H308.293ZM308.293 149.727V148.727H307.679V149.727V150.727H308.293V149.727ZM307.679 149.727L306.763 149.326C306.182 150.655 305.302 151.93 304.102 153.151L304.815 153.852L305.529 154.553C306.875 153.183 307.904 151.709 308.595 150.128L307.679 149.727ZM304.815 153.852L304.102 153.151C302.941 154.333 301.425 155.321 299.528 156.097L299.906 157.023L300.285 157.948C302.387 157.088 304.145 155.962 305.529 154.553L304.815 153.852ZM299.906 157.023L299.528 156.097C297.677 156.854 295.425 157.25 292.747 157.25V158.25V159.25C295.615 159.25 298.136 158.827 300.285 157.948L299.906 157.023ZM292.747 158.25V157.25C288.976 157.25 285.568 156.38 282.499 154.651L282.009 155.523L281.518 156.394C284.904 158.302 288.654 159.25 292.747 159.25V158.25ZM282.009 155.523L282.507 154.656C279.495 152.925 277.064 150.275 275.23 146.651L274.338 147.102L273.446 147.554C275.43 151.475 278.113 154.438 281.51 156.39L282.009 155.523ZM274.338 147.102L275.234 146.657C273.436 143.041 272.509 138.411 272.509 132.716H271.509H270.509C270.509 138.612 271.467 143.572 273.443 147.547L274.338 147.102ZM271.509 132.716H272.509C272.509 126.886 273.459 122.092 275.306 118.289L274.406 117.852L273.507 117.415C271.49 121.567 270.509 126.682 270.509 132.716H271.509ZM274.406 117.852L275.306 118.289C277.169 114.452 279.619 111.633 282.636 109.771L282.111 108.92L281.586 108.069C278.193 110.163 275.507 113.298 273.507 117.415L274.406 117.852ZM282.111 108.92L282.633 109.773C285.701 107.894 289.054 106.955 292.713 106.955V105.955V104.955C288.691 104.955 284.975 105.993 281.588 108.068L282.111 108.92ZM292.713 105.955V106.955C295.537 106.955 297.826 107.437 299.625 108.347L300.077 107.455L300.528 106.562C298.373 105.472 295.753 104.955 292.713 104.955V105.955ZM300.077 107.455L299.634 108.351C301.503 109.275 302.973 110.418 304.074 111.768L304.849 111.136L305.624 110.504C304.316 108.9 302.605 107.589 300.52 106.558L300.077 107.455ZM304.849 111.136L304.085 111.781C305.268 113.183 306.159 114.541 306.773 115.856L307.679 115.432L308.585 115.008C307.881 113.504 306.886 111.999 305.614 110.491L304.849 111.136ZM307.679 115.432V116.432H308.224V115.432V114.432H307.679V115.432ZM308.224 115.432H309.224V106.636H308.224H307.224V115.432H308.224ZM308.224 106.636V107.636H322.645V106.636V105.636H308.224V106.636ZM322.645 106.636H321.645V159.511H322.645H323.645V106.636H322.645ZM322.645 159.511H321.645C321.645 163.798 320.598 167.308 318.563 170.105L319.372 170.693L320.181 171.281C322.51 168.078 323.645 164.134 323.645 159.511H322.645ZM319.372 170.693L318.563 170.105C316.507 172.932 313.649 175.072 309.942 176.511L310.304 177.443L310.666 178.375C314.687 176.814 317.873 174.454 320.181 171.281L319.372 170.693ZM310.304 177.443L309.935 176.514C306.234 177.981 301.942 178.727 297.043 178.727V179.727V180.727C302.143 180.727 306.692 179.951 310.673 178.373L310.304 177.443ZM297.349 147.341V148.341C299.861 148.341 302.052 147.716 303.865 146.414L303.281 145.602L302.698 144.79C301.283 145.806 299.519 146.341 297.349 146.341V147.341ZM303.281 145.602L303.867 146.413C305.682 145.102 307.039 143.255 307.961 140.925L307.031 140.557L306.101 140.189C305.296 142.223 304.154 143.739 302.696 144.792L303.281 145.602ZM307.031 140.557L307.959 140.93C308.905 138.578 309.361 135.808 309.361 132.648H308.361H307.361C307.361 135.624 306.93 138.127 306.103 140.184L307.031 140.557ZM308.361 132.648H309.361C309.361 129.489 308.917 126.703 307.999 124.312L307.065 124.67L306.132 125.029C306.941 127.138 307.361 129.67 307.361 132.648H308.361ZM307.065 124.67L308 124.315C307.082 121.9 305.732 119.974 303.922 118.592L303.315 119.386L302.708 120.181C304.172 121.299 305.321 122.895 306.131 125.026L307.065 124.67ZM303.315 119.386L303.922 118.592C302.088 117.191 299.878 116.511 297.349 116.511V117.511V118.511C299.502 118.511 301.27 119.082 302.708 120.181L303.315 119.386ZM297.349 117.511V116.511C294.772 116.511 292.533 117.215 290.695 118.67L291.315 119.455L291.936 120.239C293.371 119.103 295.154 118.511 297.349 118.511V117.511ZM291.315 119.455L290.701 118.665C288.895 120.07 287.556 122.008 286.662 124.426L287.599 124.773L288.537 125.12C289.325 122.992 290.463 121.384 291.929 120.244L291.315 119.455ZM287.599 124.773L286.662 124.426C285.771 126.832 285.338 129.578 285.338 132.648H286.338H287.338C287.338 129.763 287.746 127.259 288.537 125.12L287.599 124.773ZM286.338 132.648H285.338C285.338 135.76 285.77 138.5 286.665 140.845L287.599 140.489L288.534 140.132C287.747 138.068 287.338 135.581 287.338 132.648H286.338ZM287.599 140.489L286.67 140.857C287.59 143.182 288.932 145.037 290.717 146.37L291.315 145.568L291.914 144.767C290.472 143.69 289.336 142.159 288.529 140.121L287.599 140.489ZM291.315 145.568L290.73 146.379C292.566 147.705 294.792 148.341 297.349 148.341V147.341V146.341C295.134 146.341 293.337 145.795 291.901 144.757L291.315 145.568ZM344.156 156.75L343.661 157.619L343.667 157.622L344.156 156.75ZM335.224 147.409L334.336 147.868L334.337 147.87L335.224 147.409ZM335.224 118.875L334.335 118.418V118.418L335.224 118.875ZM344.054 109.364L343.542 108.504L343.54 108.506L344.054 109.364ZM367.134 107.625L366.783 108.562L366.792 108.565L367.134 107.625ZM374.974 112.568L374.271 113.279L374.275 113.282L374.974 112.568ZM380.224 120.886L379.288 121.237L379.289 121.239L380.224 120.886ZM382.099 136.534V137.534H383.099V136.534H382.099ZM337.884 136.534H336.884V137.534H337.884V136.534ZM337.884 127.534V126.534H336.884V127.534H337.884ZM368.429 127.534V128.534H369.429V127.534H368.429ZM367.065 121.977L366.194 122.468V122.468L367.065 121.977ZM363.281 118.193L362.776 119.056L362.783 119.06L362.79 119.064L363.281 118.193ZM351.861 118.33L352.372 119.189L352.375 119.187L351.861 118.33ZM347.906 122.386L348.776 122.88L348.779 122.875L347.906 122.386ZM346.44 128.011L345.44 128V128.011H346.44ZM347.872 143.284L346.98 143.736L346.984 143.744L347.872 143.284ZM362.736 148.5L362.415 147.553V147.553L362.736 148.5ZM366.179 146.455L365.489 145.73V145.73L366.179 146.455ZM368.361 143.114L368.427 142.116L367.688 142.067L367.426 142.759L368.361 143.114ZM381.793 144L382.771 144.207L383.009 143.078L381.858 143.002L381.793 144ZM377.599 152.455L376.848 151.795L376.847 151.796L377.599 152.455ZM369.486 158.045L369.857 158.974L369.86 158.973L369.486 158.045ZM358.065 160.023V159.023C352.815 159.023 348.354 157.96 344.646 155.878L344.156 156.75L343.667 157.622C347.731 159.904 352.543 161.023 358.065 161.023V160.023ZM344.156 156.75L344.652 155.881C340.959 153.774 338.116 150.803 336.112 146.948L335.224 147.409L334.337 147.87C336.515 152.06 339.627 155.317 343.661 157.619L344.156 156.75ZM335.224 147.409L336.113 146.95C334.109 143.074 333.088 138.453 333.088 133.057H332.088H331.088C331.088 138.706 332.158 143.654 334.336 147.868L335.224 147.409ZM332.088 133.057H333.088C333.088 127.801 334.107 123.236 336.114 119.332L335.224 118.875L334.335 118.418C332.16 122.651 331.088 127.54 331.088 133.057H332.088ZM335.224 118.875L336.114 119.332C338.122 115.424 340.938 112.395 344.568 110.222L344.054 109.364L343.54 108.506C339.579 110.878 336.508 114.19 334.335 118.418L335.224 118.875ZM344.054 109.364L344.565 110.223C348.206 108.056 352.501 106.955 357.486 106.955V105.955V104.955C352.198 104.955 347.538 106.126 343.542 108.504L344.054 109.364ZM357.486 105.955V106.955C360.831 106.955 363.927 107.493 366.783 108.562L367.134 107.625L367.484 106.688C364.385 105.529 361.05 104.955 357.486 104.955V105.955ZM367.134 107.625L366.792 108.565C369.659 109.607 372.148 111.178 374.271 113.279L374.974 112.568L375.678 111.857C373.346 109.549 370.608 107.825 367.475 106.685L367.134 107.625ZM374.974 112.568L374.275 113.282C376.407 115.372 378.082 118.015 379.288 121.237L380.224 120.886L381.161 120.536C379.867 117.076 378.042 114.174 375.674 111.854L374.974 112.568ZM380.224 120.886L379.289 121.239C380.487 124.42 381.099 128.182 381.099 132.545H382.099H383.099C383.099 128 382.462 123.989 381.16 120.534L380.224 120.886ZM382.099 132.545H381.099V136.534H382.099H383.099V132.545H382.099ZM382.099 136.534V135.534H337.884V136.534V137.534H382.099V136.534ZM337.884 136.534H338.884V127.534H337.884H336.884V136.534H337.884ZM337.884 127.534V128.534H368.429V127.534V126.534H337.884V127.534ZM368.429 127.534H369.429C369.429 125.294 368.941 123.268 367.937 121.486L367.065 121.977L366.194 122.468C367.008 123.913 367.429 125.593 367.429 127.534H368.429ZM367.065 121.977L367.937 121.486C366.938 119.714 365.545 118.321 363.772 117.322L363.281 118.193L362.79 119.064C364.245 119.884 365.375 121.014 366.194 122.468L367.065 121.977ZM363.281 118.193L363.787 117.33C362.021 116.296 359.989 115.795 357.724 115.795V116.795V117.795C359.687 117.795 361.36 118.227 362.776 119.056L363.281 118.193ZM357.724 116.795V115.795C355.359 115.795 353.223 116.346 351.346 117.472L351.861 118.33L352.375 119.187C353.908 118.267 355.681 117.795 357.724 117.795V116.795ZM351.861 118.33L351.35 117.47C349.517 118.56 348.074 120.04 347.034 121.898L347.906 122.386L348.779 122.875C349.647 121.324 350.841 120.099 352.372 119.189L351.861 118.33ZM347.906 122.386L347.037 121.893C345.993 123.732 345.465 125.775 345.44 128L346.44 128.011L347.44 128.022C347.461 126.111 347.911 124.404 348.776 122.88L347.906 122.386ZM346.44 128.011H345.44V136.568H346.44H347.44V128.011H346.44ZM346.44 136.568H345.44C345.44 139.281 345.94 141.681 346.98 143.736L347.872 143.284L348.764 142.833C347.895 141.114 347.44 139.037 347.44 136.568H346.44ZM347.872 143.284L346.984 143.744C348.046 145.793 349.553 147.392 351.497 148.514L351.997 147.648L352.497 146.782C350.896 145.858 349.653 144.548 348.76 142.824L347.872 143.284ZM351.997 147.648L351.497 148.514C353.448 149.64 355.73 150.182 358.304 150.182V149.182V148.182C356.014 148.182 354.091 147.701 352.497 146.782L351.997 147.648ZM358.304 149.182V150.182C360.012 150.182 361.599 149.941 363.057 149.447L362.736 148.5L362.415 147.553C361.191 147.968 359.823 148.182 358.304 148.182V149.182ZM362.736 148.5L363.057 149.447C364.525 148.949 365.801 148.195 366.869 147.179L366.179 146.455L365.489 145.73C364.648 146.532 363.628 147.142 362.415 147.553L362.736 148.5ZM366.179 146.455L366.869 147.179C367.939 146.159 368.746 144.917 369.296 143.468L368.361 143.114L367.426 142.759C366.975 143.947 366.328 144.932 365.489 145.73L366.179 146.455ZM368.361 143.114L368.295 144.111L381.727 144.998L381.793 144L381.858 143.002L368.427 142.116L368.361 143.114ZM381.793 144L380.814 143.793C380.167 146.858 378.845 149.519 376.848 151.795L377.599 152.455L378.351 153.114C380.581 150.572 382.055 147.597 382.771 144.207L381.793 144ZM377.599 152.455L376.847 151.796C374.872 154.05 372.303 155.828 369.111 157.118L369.486 158.045L369.86 158.973C373.305 157.581 376.145 155.632 378.352 153.114L377.599 152.455ZM369.486 158.045L369.114 157.117C365.96 158.379 362.283 159.023 358.065 159.023V160.023V161.023C362.484 161.023 366.421 160.348 369.857 158.974L369.486 158.045ZM419.429 106.636H420.429V105.636H419.429V106.636ZM419.429 117.545V118.545H420.429V117.545H419.429ZM387.895 117.545H386.895V118.545H387.895V117.545ZM387.895 106.636V105.636H386.895V106.636H387.895ZM395.054 94.0909V93.0909H394.054V94.0909H395.054ZM409.577 94.0909H410.577V93.0909H409.577V94.0909ZM410.19 146.045L409.312 146.524L409.319 146.536L410.19 146.045ZM411.895 147.58L411.518 148.506L411.528 148.51L411.895 147.58ZM416.531 147.852L416.696 148.839L416.712 148.836L416.727 148.833L416.531 147.852ZM418.099 147.545L419.078 147.339L418.876 146.382L417.915 146.563L418.099 147.545ZM420.384 158.352L420.682 159.307L421.55 159.035L421.362 158.145L420.384 158.352ZM417.315 159.136L417.097 158.161L417.089 158.162L417.081 158.164L417.315 159.136ZM412.509 159.716L412.472 158.717L412.47 158.717L412.509 159.716ZM403.304 158.318L402.926 159.244L402.928 159.245L403.304 158.318ZM397.202 153.341L398.042 152.798V152.798L397.202 153.341ZM395.054 144.818L396.054 144.825V144.818H395.054ZM419.429 106.636H418.429V117.545H419.429H420.429V106.636H419.429ZM419.429 117.545V116.545H387.895V117.545V118.545H419.429V117.545ZM387.895 117.545H388.895V106.636H387.895H386.895V117.545H387.895ZM387.895 106.636V107.636H419.429V106.636V105.636H387.895V106.636ZM395.054 94.0909V95.0909H409.577V94.0909V93.0909H395.054V94.0909ZM409.577 94.0909H408.577V142.909H409.577H410.577V94.0909H409.577ZM409.577 142.909H408.577C408.577 144.331 408.79 145.567 409.312 146.524L410.19 146.045L411.068 145.567C410.772 145.024 410.577 144.169 410.577 142.909H409.577ZM410.19 146.045L409.319 146.536C409.831 147.447 410.568 148.12 411.519 148.506L411.895 147.58L412.271 146.653C411.767 146.448 411.368 146.099 411.062 145.555L410.19 146.045ZM411.895 147.58L411.528 148.51C412.417 148.86 413.409 149.023 414.486 149.023V148.023V147.023C413.608 147.023 412.873 146.89 412.261 146.649L411.895 147.58ZM414.486 148.023V149.023C415.223 149.023 415.96 148.961 416.696 148.839L416.531 147.852L416.367 146.866C415.739 146.971 415.112 147.023 414.486 147.023V148.023ZM416.531 147.852L416.727 148.833C417.408 148.697 417.926 148.595 418.284 148.528L418.099 147.545L417.915 146.563C417.546 146.632 417.018 146.735 416.335 146.872L416.531 147.852ZM418.099 147.545L417.121 147.752L419.405 158.559L420.384 158.352L421.362 158.145L419.078 147.339L418.099 147.545ZM420.384 158.352L420.085 157.398C419.397 157.613 418.405 157.867 417.097 158.161L417.315 159.136L417.534 160.112C418.862 159.815 419.916 159.546 420.682 159.307L420.384 158.352ZM417.315 159.136L417.081 158.164C415.847 158.462 414.316 158.65 412.472 158.717L412.509 159.716L412.545 160.715C414.474 160.646 416.147 160.447 417.55 160.108L417.315 159.136ZM412.509 159.716L412.47 158.717C409.079 158.849 406.158 158.395 403.68 157.391L403.304 158.318L402.928 159.245C405.723 160.377 408.938 160.856 412.547 160.715L412.509 159.716ZM403.304 158.318L403.682 157.393C401.247 156.397 399.379 154.867 398.042 152.798L397.202 153.341L396.362 153.884C397.934 156.315 400.133 158.103 402.926 159.244L403.304 158.318ZM397.202 153.341L398.042 152.798C396.719 150.752 396.032 148.116 396.054 144.825L395.054 144.818L394.054 144.812C394.03 148.384 394.776 151.43 396.362 153.884L397.202 153.341ZM395.054 144.818H396.054V94.0909H395.054H394.054V144.818H395.054ZM471.801 121.568L471.863 122.566L472.933 122.5L472.793 121.437L471.801 121.568ZM458.506 122.386L457.525 122.582L457.696 123.438L458.567 123.384L458.506 122.386ZM457.04 119.318L456.261 119.945L456.268 119.955L457.04 119.318ZM454.074 117.102L453.647 118.007L453.657 118.012L453.668 118.016L454.074 117.102ZM444.051 117.682L444.568 118.538L444.577 118.533L444.051 117.682ZM443.233 124.602L442.579 125.359V125.359L443.233 124.602ZM448.381 126.682L448.171 127.66L448.183 127.662L448.381 126.682ZM457.858 128.591L458.059 127.611L458.055 127.611L457.858 128.591ZM469.244 133.636L468.564 134.37V134.37L469.244 133.636ZM469.96 151.807L469.172 151.191L469.169 151.196L469.96 151.807ZM461.71 157.875L462.091 158.8L462.094 158.798L461.71 157.875ZM433.108 155.693L432.528 156.508L432.534 156.512L433.108 155.693ZM425.915 143.83L425.862 142.831L424.772 142.888L424.925 143.969L425.915 143.83ZM440.199 143.08L441.179 142.879L441.006 142.036L440.146 142.081L440.199 143.08ZM443.335 147.92L442.778 148.751L442.786 148.756L443.335 147.92ZM455.847 148.091L456.381 148.936L456.384 148.934L455.847 148.091ZM458.233 144.239L459.233 144.253L459.233 144.237L459.233 144.221L458.233 144.239ZM456.562 141L455.942 141.784L455.952 141.792L456.562 141ZM451.517 139.023L451.713 138.042L451.712 138.042L451.517 139.023ZM442.449 137.216L442.253 138.196L442.253 138.197L442.449 137.216ZM431.028 131.898L430.315 132.598L430.318 132.602L431.028 131.898ZM430.04 113.557L429.242 112.953L429.239 112.958L430.04 113.557ZM437.778 107.932L437.411 107.002L437.409 107.002L437.778 107.932ZM465.119 110.148L464.526 110.953L464.529 110.955L465.119 110.148ZM471.801 121.568L471.74 120.57L458.444 121.388L458.506 122.386L458.567 123.384L471.863 122.566L471.801 121.568ZM458.506 122.386L459.486 122.19C459.226 120.889 458.664 119.716 457.811 118.682L457.04 119.318L456.268 119.955C456.915 120.739 457.331 121.611 457.525 122.582L458.506 122.386ZM457.04 119.318L457.819 118.691C456.957 117.621 455.835 116.79 454.48 116.188L454.074 117.102L453.668 118.016C454.768 118.505 455.622 119.152 456.261 119.945L457.04 119.318ZM454.074 117.102L454.5 116.198C453.132 115.552 451.536 115.25 449.744 115.25V116.25V117.25C451.316 117.25 452.606 117.516 453.647 118.007L454.074 117.102ZM449.744 116.25V115.25C447.353 115.25 445.263 115.758 443.526 116.831L444.051 117.682L444.577 118.533C445.93 117.696 447.636 117.25 449.744 117.25V116.25ZM444.051 117.682L443.535 116.825C441.743 117.906 440.733 119.455 440.733 121.432H441.733H442.733C442.733 120.273 443.268 119.321 444.567 118.538L444.051 117.682ZM441.733 121.432H440.733C440.733 122.991 441.374 124.318 442.579 125.359L443.233 124.602L443.887 123.845C443.092 123.159 442.733 122.373 442.733 121.432H441.733ZM443.233 124.602L442.579 125.359C443.775 126.392 445.696 127.128 448.171 127.659L448.381 126.682L448.591 125.704C446.202 125.191 444.691 124.54 443.887 123.845L443.233 124.602ZM448.381 126.682L448.183 127.662L457.66 129.571L457.858 128.591L458.055 127.611L448.578 125.702L448.381 126.682ZM457.858 128.591L457.657 129.57C462.655 130.597 466.251 132.225 468.564 134.37L469.244 133.636L469.924 132.903C467.237 130.412 463.242 128.676 458.059 127.611L457.858 128.591ZM469.244 133.636L468.564 134.37C470.837 136.477 471.994 139.245 471.994 142.773H472.994H473.994C473.994 138.755 472.651 135.432 469.924 132.903L469.244 133.636ZM472.994 142.773H471.994C471.994 145.992 471.051 148.784 469.172 151.191L469.96 151.807L470.748 152.422C472.915 149.647 473.994 146.417 473.994 142.773H472.994ZM469.96 151.807L469.169 151.196C467.291 153.628 464.691 155.553 461.326 156.952L461.71 157.875L462.094 158.798C465.729 157.288 468.63 155.167 470.752 152.418L469.96 151.807ZM461.71 157.875L461.329 156.95C457.995 158.323 454.118 159.023 449.676 159.023V160.023V161.023C454.326 161.023 458.471 160.29 462.091 158.8L461.71 157.875ZM449.676 160.023V159.023C442.874 159.023 437.575 157.606 433.682 154.875L433.108 155.693L432.534 156.512C436.868 159.553 442.615 161.023 449.676 161.023V160.023ZM433.108 155.693L433.687 154.878C429.822 152.129 427.571 148.42 426.905 143.69L425.915 143.83L424.925 143.969C425.667 149.239 428.212 153.439 432.528 156.508L433.108 155.693ZM425.915 143.83L425.967 144.828L440.251 144.078L440.199 143.08L440.146 142.081L425.862 142.831L425.915 143.83ZM440.199 143.08L439.219 143.28C439.699 145.628 440.882 147.478 442.778 148.751L443.335 147.92L443.893 147.09C442.47 146.135 441.562 144.758 441.179 142.879L440.199 143.08ZM443.335 147.92L442.786 148.756C444.651 149.982 446.983 150.557 449.71 150.557V149.557V148.557C447.256 148.557 445.338 148.04 443.885 147.085L443.335 147.92ZM449.71 149.557V150.557C452.374 150.557 454.625 150.047 456.381 148.936L455.847 148.091L455.312 147.246C453.978 148.09 452.138 148.557 449.71 148.557V149.557ZM455.847 148.091L456.384 148.934C458.175 147.792 459.204 146.224 459.233 144.253L458.233 144.239L457.233 144.224C457.216 145.39 456.654 146.39 455.309 147.248L455.847 148.091ZM458.233 144.239L459.233 144.221C459.205 142.584 458.492 141.225 457.173 140.208L456.562 141L455.952 141.792C456.815 142.457 457.216 143.257 457.233 144.256L458.233 144.239ZM456.562 141L457.183 140.216C455.912 139.209 454.05 138.51 451.713 138.042L451.517 139.023L451.321 140.003C453.529 140.445 455.031 141.063 455.942 141.784L456.562 141ZM451.517 139.023L451.712 138.042L442.644 136.235L442.449 137.216L442.253 138.197L451.322 140.003L451.517 139.023ZM442.449 137.216L442.645 136.235C437.64 135.234 434.047 133.523 431.739 131.194L431.028 131.898L430.318 132.602C433.01 135.318 437.031 137.152 442.253 138.196L442.449 137.216ZM431.028 131.898L431.742 131.197C429.468 128.882 428.312 125.927 428.312 122.25H427.312H426.312C426.312 126.391 427.634 129.868 430.315 132.598L431.028 131.898ZM427.312 122.25H428.312C428.312 119.078 429.166 116.396 430.841 114.156L430.04 113.557L429.239 112.958C427.277 115.581 426.312 118.695 426.312 122.25H427.312ZM430.04 113.557L430.837 114.16C432.55 111.898 434.97 110.124 438.148 108.861L437.778 107.932L437.409 107.002C433.951 108.376 431.211 110.352 429.242 112.953L430.04 113.557ZM437.778 107.932L438.145 108.862C441.345 107.6 445.124 106.955 449.506 106.955V105.955V104.955C444.933 104.955 440.894 105.627 437.411 107.002L437.778 107.932ZM449.506 105.955V106.955C455.99 106.955 460.96 108.326 464.526 110.953L465.119 110.148L465.712 109.343C461.688 106.379 456.249 104.955 449.506 104.955V105.955ZM465.119 110.148L464.529 110.955C468.12 113.584 470.208 117.143 470.81 121.699L471.801 121.568L472.793 121.437C472.122 116.357 469.755 112.302 465.71 109.341L465.119 110.148Z" fill="black" mask="url(#path-3-outside-2_499_768)"/>
<foreignObject x="-7" y="-7" width="240.562" height="258"><div xmlns="http://www.w3.org/1999/xhtml" style="backdrop-filter:blur(3.5px);clip-path:url(#bgblur_0_499_768_clip_path);height:100%;width:100%"></div></foreignObject><g data-figma-bg-blur-radius="7">
<mask id="path-5-inside-3_499_768" fill="white">
<path d="M225.646 54.781C211.036 32.8314 189.665 16.1529 164.719 7.23186C139.773 -1.6892 112.589 -2.37506 87.2179 5.27651C61.8471 12.9281 39.6488 28.5073 23.932 49.6918C8.2153 70.8763 -0.178169 96.5315 0.0028664 122.833C0.183902 149.134 8.92975 174.673 24.9366 195.643C40.9435 216.613 63.3543 231.89 88.828 239.197C114.302 246.504 141.474 245.451 166.295 236.192C191.115 226.934 212.255 209.968 226.562 187.823L192.018 165.867C182.483 180.625 168.395 191.932 151.853 198.102C135.312 204.272 117.203 204.975 100.226 200.105C83.2498 195.235 68.3144 185.054 57.6468 171.079C46.9792 157.104 41.1506 140.083 41.0299 122.555C40.9093 105.027 46.503 87.9292 56.9773 73.811C67.4515 59.6929 82.2453 49.3102 99.1534 44.2109C116.061 39.1116 134.178 39.5687 150.803 45.5141C167.428 51.4594 181.67 62.5746 191.407 77.2027L225.646 54.781Z"/>
</mask>
<path d="M225.646 54.781C211.036 32.8314 189.665 16.1529 164.719 7.23186C139.773 -1.6892 112.589 -2.37506 87.2179 5.27651C61.8471 12.9281 39.6488 28.5073 23.932 49.6918C8.2153 70.8763 -0.178169 96.5315 0.0028664 122.833C0.183902 149.134 8.92975 174.673 24.9366 195.643C40.9435 216.613 63.3543 231.89 88.828 239.197C114.302 246.504 141.474 245.451 166.295 236.192C191.115 226.934 212.255 209.968 226.562 187.823L192.018 165.867C182.483 180.625 168.395 191.932 151.853 198.102C135.312 204.272 117.203 204.975 100.226 200.105C83.2498 195.235 68.3144 185.054 57.6468 171.079C46.9792 157.104 41.1506 140.083 41.0299 122.555C40.9093 105.027 46.503 87.9292 56.9773 73.811C67.4515 59.6929 82.2453 49.3102 99.1534 44.2109C116.061 39.1116 134.178 39.5687 150.803 45.5141C167.428 51.4594 181.67 62.5746 191.407 77.2027L225.646 54.781Z" fill="#085F63" stroke="black" stroke-width="2" mask="url(#path-5-inside-3_499_768)"/>
</g>
<defs>
<clipPath id="bgblur_0_499_768_clip_path" transform="translate(7 7)"><path d="M225.646 54.781C211.036 32.8314 189.665 16.1529 164.719 7.23186C139.773 -1.6892 112.589 -2.37506 87.2179 5.27651C61.8471 12.9281 39.6488 28.5073 23.932 49.6918C8.2153 70.8763 -0.178169 96.5315 0.0028664 122.833C0.183902 149.134 8.92975 174.673 24.9366 195.643C40.9435 216.613 63.3543 231.89 88.828 239.197C114.302 246.504 141.474 245.451 166.295 236.192C191.115 226.934 212.255 209.968 226.562 187.823L192.018 165.867C182.483 180.625 168.395 191.932 151.853 198.102C135.312 204.272 117.203 204.975 100.226 200.105C83.2498 195.235 68.3144 185.054 57.6468 171.079C46.9792 157.104 41.1506 140.083 41.0299 122.555C40.9093 105.027 46.503 87.9292 56.9773 73.811C67.4515 59.6929 82.2453 49.3102 99.1534 44.2109C116.061 39.1116 134.178 39.5687 150.803 45.5141C167.428 51.4594 181.67 62.5746 191.407 77.2027L225.646 54.781Z"/>
</clipPath></defs>
</svg>
